<?xml version='1.0' encoding='UTF-8'?>
<svg x="0px" y="0px" viewBox="0 0 32 32" version="1.1" xmlns="http://www.w3.org/2000/svg" xmlns:xlink="http://www.w3.org/1999/xlink" xml:space="preserve" id="Layer_1" style="enable-background:new 0 0 32 32">
  <style type="text/css">
	.Blue{fill:#1177D7;}
	.Yellow{fill:#FFB115;}
	.Black{fill:#727272;}
	.Green{fill:#039C23;}
	.Red{fill:#D11C1C;}
	.st0{opacity:0.75;}
	.st1{opacity:0.5;}
</style>
  <g id="Bell">
    <path d="M22,18v-6c0-2.6-1.7-4.8-4-5.7c0-0.1,0-0.2,0-0.3c0-1.1-0.9-2-2-2s-2,0.9-2,2c0,0.1,0,0.2,0,0.3   c-2.3,0.8-4,3-4,5.7v6l-4,4v2h20v-2L22,18z" class="Yellow" />
    <path d="M16,28c1.1,0,2-0.9,2-2h-4C14,27.1,14.9,28,16,28z" class="Yellow" />
  </g>
</svg>